<svg xmlns="http://www.w3.org/2000/svg" width="174" height="180" fill="none"><style><![CDATA[.B{fill:#fff}.C{fill-rule:evenodd}]]></style><rect width="174" height="180" rx="8" class="B"/><rect x="141.26" y="73.913" width="18.695" height="18.695" rx="3.116" transform="rotate(30 141.26 73.913)" fill="#ffe600"/><g clip-path="url(#A)" class="B C"><path d="M145.4 80.826l-.92 1.593-3.967 1.445 2.132-3.693-1.044-.602.8-1.4 3.393 1.96-.404.7zm1.248 14.22l-1.38-8.413 7.3-2.52-2.9-1.674-10.687 4.066-1.782 3.087 2.35 1.356 1.9-3.307 1.44-.504.853 6.237 2.897 1.673z"/></g><rect x="2" y="28.146" width="33.694" height="33.694" rx="5.616" transform="rotate(303.349 2 28.146)" fill="#ffa800"/><g clip-path="url(#B)" class="B C"><path d="M14.874 21.443l2.77 1.822 2.183 7.3-6.42-4.225-1.194 1.814-2.435-1.603 3.882-5.898 1.215.8zm25.718-.766L25.3 22.275l-3.768-13.4-3.316 5.04 6.2 19.655 5.367 3.532 2.688-4.084-5.75-3.783-.756-2.642 11.3-.878 3.314-5.036z"/></g><rect x="11" y="35.674" width="113.017" height="113.017" rx="18.836" transform="rotate(344.778 11 35.674)" fill="#177de6"/><g clip-path="url(#C)" class="B C"><path d="M58.254 47.4l2.92 10.73-10.7 23.178-6.768-24.873-7.028 1.913L34.12 48.9l22.853-6.218 1.28 4.7zm66.38 55.154l-41.98-29.898 20.268-42.065-19.525 5.313-28.057 63.17L61 119.86l15.825-4.306-6.06-22.273 3.962-8.322 30.395 22.896 19.513-5.3z"/></g><rect x="120" y="4.828" width="51.334" height="51.334" rx="8.556" fill="#b057e7"/><path d="M139.314 15.6v5.05l-7.45 8.883v-11.7h-3.308V13.38h10.758v2.22zm22.516 32.1l-14.833-18.1 13.9-16.02h-9.2l-19.83 24.34v9.8h7.45V37.204l2.73-3.175 10.592 13.66h9.185z" class="B C"/><rect x="110.638" y="122" width="41.089" height="41.089" rx="6.848" transform="rotate(26.662 110.638 122)" fill="#f15b5b"/><g clip-path="url(#D)" class="B C"><path d="M120.585 136.64l-1.814 3.612-8.52 3.68 4.205-8.375-2.366-1.188 1.595-3.178 7.695 3.864-.796 1.586zm4.58 31.042L121.06 149.4l15.697-6.467-6.575-3.3-22.927 10.3-3.516 7.002 5.33 2.676 3.765-7.5 3.093-1.3 2.67 13.575 6.57 3.3z"/></g><rect x="6" y="136.046" width="30" height="30" rx="5" transform="rotate(320.591 6 136.046)" fill="#090"/><g clip-path="url(#E)" class="B C"><path d="M18.717 133.743l1.874 2.28-.068 6.775-4.344-5.287-1.494 1.227-1.648-2.005 4.857-3.992.822 1zM40.8 139.88l-13.417-2.674.333-12.4-4.15 3.4.077 18.348 3.632 4.42 3.363-2.764-3.9-4.734.054-2.446 9.85 2.238 4.148-3.408z"/></g><defs><clipPath id="A"><path transform="matrix(.866025 .5 -.5 .866025 141.26 73.9127)" d="M0 0h18.695v18.695H0z" class="B"/></clipPath><clipPath id="B"><path transform="matrix(.549736 -.835338 .835338 .549736 2 28.1455)" d="M0 0h33.694v33.694H0z" class="B"/></clipPath><clipPath id="C"><path transform="matrix(.964916 -.262558 .262558 .964916 11 35.6736)" d="M0 0h113.017v113.017H0z" class="B"/></clipPath><clipPath id="D"><path transform="matrix(.893672 .44872 -.44872 .893672 110.638 122)" d="M0 0h41.09v41.09H0z" class="B"/></clipPath><clipPath id="E"><path transform="matrix(.772634 -.634852 .634852 .772634 6 136.046)" d="M0 0h30v30H0z" class="B"/></clipPath></defs></svg>
