<svg width="174" height="180" fill="none" xmlns="http://www.w3.org/2000/svg"><g clip-path="url(#clip0)"><path d="M172.754 171.302c1.396 0 1.695 1.999.299 2.399-6.978 1.9-27.413 4.299-85.927 4.299-56.47 0-77.503-2.199-85.179-4.099-1.495-.35-1.196-2.599.299-2.599h170.508z" fill="#EDE1E6"/><path d="M77.058 113.868v2.15H53.383l-3.29 3.749-16.547 53.584H22.88c0-.65 11.813-39.189 16.298-53.884.997-3.299 4.187-5.599 7.776-5.599h30.104z" fill="#FFD47A"/><path d="M109.505 173.351H98.54l-12.112-52.585c-.648-2.799-3.19-4.748-6.13-4.748H62.802v-2.15h18.093c.697 0 1.395.1 2.093.25.648.15 1.296.4 1.894.75l8.822.6 2.94 2.449 12.86 55.434z" fill="url(#paint0_linear)"/><path d="M32.6 173.351c0-.65 11.812-39.189 16.298-53.884.996-3.299 4.186-5.599 7.775-5.599h33.942c3.788 0 7.078 2.55 7.875 6.148l12.211 53.335h-2.392l-12.112-52.585c-.648-2.799-3.19-4.748-6.13-4.748H57.122c-2.792 0-5.234 1.749-6.031 4.348l-16.299 52.985H32.6z" fill="#BF6224"/><path d="M27.566 140.211a6.529 6.529 0 006.529 6.548h42.864c4.385 0 5.183-2.549 6.977-6.548l2.99-6.598.25-.5 25.868-57.134c1.345-3 .099-6.498-2.791-7.948-.798-.4-1.695-.6-2.542-.65h-.2c-2.243.05-4.436 1.3-5.432 3.5l-27.463 59.233c-.798 1.799-2.592 2.949-4.536 2.999l-35.985.5c-3.639.1-6.53 2.999-6.53 6.598z" fill="url(#paint1_linear)"/><path d="M69.98 133.163l16.997.5 36.733 1.099 17.195-39.888 11.863-27.443h-45.257c-2.242.05-4.435 1.3-5.432 3.5l-27.463 59.233a5.25 5.25 0 01-4.635 2.999z" fill="#B23F22"/><path opacity=".4" d="M69.98 133.163h45.058l6.778-.85 19.089-37.49 11.863-27.442H107.561c-2.243.05-4.436 1.3-5.432 3.5l-27.463 59.233c-.897 1.849-2.692 2.999-4.685 3.049z" fill="#592011"/><path d="M72.622 140.211a6.529 6.529 0 006.53 6.548h39.773c4.386 0 8.323-2.549 10.118-6.548L158.1 75.979c1.346-3 .1-6.498-2.791-7.948-3.04-1.55-6.778-.25-8.224 2.9l-27.462 59.233c-.798 1.799-2.592 2.949-4.586 2.999l-35.985.5c-3.54.05-6.43 2.949-6.43 6.548z" fill="#592011"/><path d="M72.772 22.544s-1.745-2-2.293-3.799c-.548-1.75 0-2.999 0-2.999l6.48-1.5 2.79 1.65-3.488 3.25-.698 3.498s-1.645 1.65-1.844 1.4c-.15-.15-.947-1.5-.947-1.5z" fill="url(#paint2_linear)"/><path d="M78.454 14.296c-.25-3.099 2.94-9.147 2.691-11.346-.249-2.15-1.794-.45-2.691 2.1-.897 2.548-1.445 9.197-1.445 9.197h1.445v.05z" fill="url(#paint3_linear)"/><path d="M75.762 12.347c-.299-.85-2.043-1.6-1.844.35.15 1.95.499 4.649 1.794 4.799 1.296.15 1.047-2.3.05-5.149z" fill="url(#paint4_linear)"/><path d="M73.819 12.697c-.25-.8-1.894-1.5-1.745.3.15 1.8.499 4.349 1.695 4.449 1.196.15.947-2.1.05-4.75z" fill="url(#paint5_linear)"/><path d="M71.675 13.847c-.299-.6-1.993-.9-1.744.5.2 1.4.648 3.298 1.844 3.249 1.246-.05.947-1.8-.1-3.75z" fill="url(#paint6_linear)"/><path d="M75.613 22.744s5.781-4.299 6.03-5.948c.25-1.65-3.787-2.65-4.485-4.499-.698-1.85-1.994-.6-1.595 1.6.449 2.199 2.99 2.199 2.99 2.199s-3.488 1.5-4.186 2.55c-.698.999 1.246 4.098 1.246 4.098z" fill="#FAA570"/><path d="M16.102 173.901c2.542.75 12.111.65 14.653.5.1-.4 0-.95-.299-1.25 0 0-14.653-.549-14.354.75z" fill="#84B3D1"/><path d="M30.008 171.902l-.25-2.799s7.477-15.246 9.47-21.744c0 0-8.224-5.349-10.417-6.149.25 8.048-.598 25.043-.747 25.793-.399 1.7-10.218 6.198-10.218 6.198l10.617.3c.897.1 1.644-.7 1.545-1.599z" fill="url(#paint7_linear)"/><path d="M23.329 173.651c0-.1-1.545-4.299-3.738-4.798-.648-.15-2.592 3.299-2.692 3.998-.1.7.598.9.897.9 1.346.15 5.533-.1 5.533-.1z" fill="#47779E"/><path d="M81.743 112.419s-40.67-1.45-43.461.799c-5.981 4.749-9.72 30.342-9.72 30.342s12.212 4.149 12.212 1.649c0-2.499 3.738-12.746 3.738-12.746s2.592.85 1.495-1.75c9.32 1.6 34.142 1 34.142 1l1.594-19.294z" fill="url(#paint8_linear)"/><path d="M48.898 176.15c2.541.75 9.22.65 11.762.5.1-.4 0-.949-.299-1.249 0 0-11.762-.55-11.463.749z" fill="#84B3D1"/><path d="M59.913 174.151l-.25-2.799s3.09-11.497 5.882-22.494c-3.589.25-7.477-.15-9.72-.949.35 10.497.997 20.994.848 21.743-.399 1.7-6.08 4.999-6.08 4.999l7.725 1.15c.947.05 1.694-.75 1.595-1.65z" fill="url(#paint9_linear)"/><path d="M59.115 176.001c0-.1-2.243-4.299-5.383-4.799-.947-.15-3.738 3.299-3.887 3.999-.2.7.847.9 1.296.9 1.943.1 7.974-.1 7.974-.1z" fill="#47779E"/><path d="M143.348 113.068c-.698-.299-2.293-1.199-3.938-2.249-2.542-1.649-5.333-3.749-5.383-4.799.05-.15.05-.299.1-.449 1.545-6.698-.15-18.445-.349-19.695v-.05-.05c-.249.45-.748 1.45-1.346 2.7-.648 1.3-1.395 2.849-2.043 4.248-.1.25-.249.45-.349.7-.1.2-.2.35-.249.55-.15.25-.25.55-.399.85-.15.25-.249.5-.399.75-.698 1.399-1.445 2.949-2.293 4.598-.299.6-.598 1.15-.897 1.75-.05.15-.149.25-.199.399-.249.45-.498.95-.748 1.45-.498.95-1.046 1.9-1.595 2.849-.398.75-.847 1.45-1.295 2.2a73.942 73.942 0 01-2.692 4.148c-.399.6-.847 1.2-1.296 1.8-4.585 6.298-9.918 11.347-15.5 11.947-1.595 2.749-3.39 4.698-5.882 5.898.698-2.299 2.243-8.798.05-13.446a8.345 8.345 0 00-1.645-2.35c-3.688-3.699-13.307-3.499-18.84-2.999 3.49-1.849 11.165-6.248 14.355-10.897.1-.15.199-.35.299-.5a23.658 23.658 0 001.943-3.898c.2-.55.449-1.05.599-1.6.05-.05.05-.15.05-.2.199-.6.398-1.15.548-1.75.797-2.599 1.296-5.048 1.594-6.748.25-1.4.35-2.299.35-2.299s-.15-1.4-.3-3.399c-.249-3.449.599-7.748.748-9.897.05-.8-.797-1.55-2.143-2.35-2.343-1.399-6.33-2.899-9.869-4.848-.648-.35-1.345-.75-1.993-1.2-1.994-1.3-3.888-2.649-5.383-4.148l-.3-.3c-1.644-1.6-3.09-3.15-3.389-3.8-.1-.2-.199-.35-.249-.55-.698-1.549-1.146-3.398-1.445-5.448C69.88 38.59 73.32 21.644 73.32 21.644l2.393.15s2.94 26.943 4.735 29.042c.15.1 1.445.9 3.837 2.05.598.3 1.246.6 1.994.95 2.89 1.349 6.828 2.898 11.663 4.398 2.193.7 4.585 1.35 7.127 1.95.549.15 1.097.25 1.645.35.299.05.598.15.897.2.05 0 .1.05.2.05.847.2 1.694.35 2.591.5 1.396.25 2.841.499 4.337.699 3.439-6.048 3.887-13.446 3.887-13.446l6.28.75c-.099.5-.149.95-.249 1.4-.05.3-.1.599-.15.849-.099.85-.199 1.65-.299 2.45l-.149 1.799c-.249 3.899 0 6.698.249 7.598 0 .05.05.1.05.15.249.35 1.146.8 2.392 1.35.1.05.25.1.349.15.598.299 1.296.549 2.044.899.299.1.548.2.847.35.648.25 1.246.55 1.944.8 1.395.6 2.841 1.2 4.236 1.799 2.642 1.2 4.985 2.4 5.682 3.699 3.938 7.048 4.337 35.49 1.496 40.488z" fill="#FAA570"/><path opacity=".5" d="M106.465 60.933c2.492 6.248 14.354 6.598 14.354 6.598l-7.127 13.546s-13.457-6.148-13.507-6.448c-.05-.3 2.542-13.196 2.542-13.196l3.738-.5z" fill="url(#paint10_linear)"/><path opacity=".5" d="M144.843 106.02c-.299 3.3-.798 5.849-1.495 7.048-.499.6-1.845 1-3.639 1.2l-.249-3.449-.15-1.849-.149-1.8-2.841-38.289c2.642 1.2 4.984 2.4 5.682 3.699 2.891 5.348 3.788 23.043 2.841 33.44z" fill="url(#paint11_linear)"/><path opacity=".5" d="M98.14 58.284c1.297 2.85 3.091 5.148 5.334 6.898.149.1.249.2.399.3.249.2.548.4.797.55.499.35 1.047.65 1.545.9.349.15.648.3.997.45l.748.3c4.984 1.799 11.264 1.299 18.291-2.1.349-.15.698-.35 1.047-.5.449-.25.897-.5 1.396-.75h-.499c-.448.05-.847.25-1.246.55-1.246-.55-2.093-1-2.392-1.35-.05-.05-.05-.1-.05-.15-.249-.9-.498-3.648-.249-7.597l.149-1.8c.1-.8.15-1.6.299-2.45.05-.299.1-.549.15-.849.05-.45.149-.95.249-1.4l-6.28-.75s-.448 7.399-3.888 13.447a98.71 98.71 0 01-4.336-.7c.1-.1.2-.2.249-.3-.647-.35-1.445-.5-2.043-.6-.249.2-.498.4-.798.4h-.199c-.299-.05-.598-.15-.897-.2-.548-.1-1.097-.25-1.645-.35a96.48 96.48 0 01-7.127-1.949z" fill="url(#paint12_radial)"/><path d="M146.089 94.474c-1.296 3.149-5.184 3.299-8.274 2.849-2.293-.3-4.187-1-4.187-1s.1-.5.2-2.3c.05-1.099.149-2.698.199-4.948-.747 1.5-.997-.15-.997-.15-.149.3-2.292 4.949-4.934 10.447-1.844 3.799-3.937 8.048-5.782 11.397-4.485 8.398-13.357 14.746-13.357 14.746s-.997-3.249-6.629-7.498c-.748-.6-1.595-1.1-2.492-1.5-8.324-3.948-21.083-1.649-21.382-4.248-.3-2.85 3.439-5.649 4.785-6.499l.15-.099c1.295-.65 2.64.999 4.435-1.05.2-.25.499-.6.798-1.1 1.644-2.499 4.286-7.798 5.382-12.796.3-1.4.549-2.8.549-4.05 0-.449 0-.899-.05-1.299-.499-6.748 1.395-10.397.648-12.246-.399-1.05-1.097-1.75-2.393-2.55-.797-.5-1.794-1-3.09-1.6-.498-.199-.997-.449-1.595-.699-2.492-3.799-1.196-7.498.898-9.997.847-1.05 1.844-1.9 2.74-2.45l1.596.45 9.22 2.55 2.542 4.698 1.595 2 .349.4.349 2.849.449 3.449.299 2.3 1.545-1.95 1.694-2.05 2.991-3.748c.448.05.897.05 1.346 0 4.984-.15 10.267-2.9 10.267-2.9s15.451 5.999 16.597 7.848c.249.45.548 1.45.897 2.85.848 3.548 1.795 9.547 2.293 14.795.1 1.15.199 2.2.249 3.25.05.749.05 1.299.1 1.849z" fill="#15D98A"/><path opacity=".1" d="M107.063 65.982l.349 2.849c-6.978-3.25-13.607-6.948-18.442-10.497.848-1.05 1.845-1.9 2.742-2.45l1.595.45 9.22 2.55 2.542 4.699 1.595 1.999.399.4z" fill="url(#paint13_linear)"/><path opacity=".1" d="M143.497 74.73c-.448.8-1.146 1.549-2.143 2.249-3.888 2.649-16.996-.85-29.905-6.398l2.991-3.75c.448.05.897.05 1.345 0 4.985-.15 10.268-2.899 10.268-2.899s15.451 5.999 16.597 7.848c.199.5.498 1.55.847 2.95z" fill="url(#paint14_linear)"/><path opacity=".8" d="M132.981 88.975c-.15.3-2.293 4.999-4.985 10.447-1.844 3.799-3.937 8.048-5.781 11.397-4.486 8.398-13.358 14.746-13.358 14.746s-.997-3.249-6.629-7.498a11.39 11.39 0 00-2.492-1.5c-8.323-3.948-21.083-1.649-21.382-4.248-.299-2.85 3.44-5.649 4.785-6.499l.15-.1c1.296-.649 2.641 1 4.436-1.049.199-.25.498-.6.797-1.1 1.645-2.499 4.286-7.798 5.383-12.796.299-1.4.548-2.8.548-4.05 1.695 3.65 4.984 3.05 9.221 3.2 4.984.15 7.476 4.649 15.6 5.349 8.374.7 13.707-6.299 13.707-6.299z" fill="url(#paint15_linear)"/><path d="M146.089 94.474s0 .05-.05.05c-2.293 5.448-12.411 1.8-12.411 1.8s.05-.25.1-1c0-.15 0-.3.05-.5 0-.2.05-.45.05-.75 4.934 1.75 9.669.9 12.211-1.35 0 .4.05.8.05 1.2-.05.2-.05.4 0 .55z" fill="#32FFAC"/><path opacity=".1" d="M133.778 94.074c.05-1.1.15-2.7.199-4.949-.747 1.5-.996-.15-.996-.15s-2.243 4.799-4.985 10.447c-1.844 3.799-3.937 8.048-5.781 11.397-4.486 8.398-13.358 14.746-13.358 14.746s-.997-3.249-6.629-7.498a11.39 11.39 0 00-2.492-1.5c5.333-.349 15.501-4.348 18.641-9.147 3.638-5.498 3.987-12.147 7.476-13.846 3.489-1.65 7.825-9.997 8.324-9.147.448.8 2.193 6.098 3.539 12.846-2.293-.3-4.187-1-4.187-1s.149-.45.249-2.2z" fill="#6B7A82"/><path opacity=".2" d="M106.714 109.919c-3.638.6-20.684-5.098-23.425-4.049l.149-.1c1.296-.649 2.642 1 4.436-1.049.2-.25.498-.6.797-1.1 2.99 1.2 13.308 5.199 18.043 6.298z" fill="#6B7A82"/><path d="M115.735 66.882c-.897 1.15-5.831 7.797-6.33 8.847-.548 1.2-2.292 7.748-2.741 7.798-.449.05-2.043 0-2.043-.65 0-.6 1.744-7.398 1.744-7.398s.399-6.548-.249-9.597l.598-.35.349.4.797 6.298.299 2.3 1.545-1.95 4.685-5.798c.449.1.898.15 1.346.1z" fill="url(#paint16_linear)"/><path d="M107.063 65.982s-.798.15-1.545.9c-.2.2-.449.5-.648.85-.349.6-.548 1.399-.598 2.499-2.891-5.099.797-9.798.997-10.047l.149.05 1.446.35c-1.645 3.148.199 5.398.199 5.398z" fill="#32FFAC"/><path d="M101.331 116.717c-1.246-.3-3.14-.549-5.333-.799-.15-.2-.349-.4-.548-.6-3.639-1.4-31.899.15-34.59 1.649-4.984 2.85-5.383 28.992-5.383 28.992l9.868 4.999s4.337-8.848 3.988-17.645c2.342 1.399 2.492-.4 2.492-.4s22.478 1.749 28.509.05c3.888-1 8.374-4.749 8.623-7.398.249-2.649-3.24-7.848-7.626-8.848z" fill="url(#paint17_linear)"/><path d="M94.503 116.368l-49.144-5.199-7.526-28.992c-.25-.95.548-1.85 1.495-1.75l32.048 3.4c1.197.15 2.144 1 2.393 2.2l5.582 26.492 14.903 1.599.249 2.25z" fill="#1B3547"/><path d="M94.503 116.368l-15.6-1.65-33.444-3.549c-.599-.05-1.097-.5-1.296-1.1v-.05l-7.227-27.942c-.25-.95.548-1.85 1.495-1.75l32.048 3.4c1.196.15 2.143 1 2.392 2.2l5.583 26.492 15.85 1.699.199 2.25z" fill="url(#paint18_linear)"/><path d="M78.454 112.369l.448 2.349 15.6 1.65-.199-2.3-15.85-1.699z" fill="#1B3547"/><path d="M78.902 114.718l-33.444-3.549c-.598-.05-1.096-.5-1.296-1.1v-.05l34.54 3.649.2 1.05z" fill="#1B3547"/><g opacity=".7"><path opacity=".7" d="M58.168 97.873c.15 1.2-.498 2.1-1.445 2-.947-.1-1.844-1.15-1.994-2.35-.15-1.2.498-2.1 1.446-2 .947.1 1.844 1.15 1.993 2.35z" fill="#DCEBEB"/><path opacity=".7" d="M57.92 97.823c.149 1-.4 1.75-1.197 1.65-.797-.1-1.545-.95-1.695-2-.15-1 .399-1.75 1.197-1.65.797.15 1.545 1 1.694 2z" fill="#C9D6D6"/><path opacity=".7" d="M61.857 98.922c-.1 3.349-2.592 5.499-5.583 4.849-2.99-.65-5.333-3.949-5.233-7.298.1-3.349 2.592-5.498 5.582-4.849 2.94.7 5.283 3.95 5.234 7.298z" fill="url(#paint19_radial)"/></g><path d="M101.331 40.889l2.791 2.95s8.922 2.698 8.972 2.548c.05-.15 9.37-.6 9.37-.6s5.931-12.196 5.931-12.396c0-.2-2.791-9.597-2.791-9.597l-7.526-3.95-11.464.2s-1.495 1.75-2.342 4.7c-.449 2.099-.748 2.849-.748 3.948v.8c.1 1.6.548 2.65.1 5.099-.1.7-.349 1.5-.648 2.3-.698 2.049-1.645 3.998-1.645 3.998z" fill="#FAA570"/><path d="M102.976 36.94c1.196.9 4.386 2.55 5.234.8 1.046-2.2 1.744-5.449.398-7.848-.997-2.3-3.638-1.75-5.133-1.2v.8c.099 1.6.548 2.65.099 5.099-.05.75-.299 1.55-.598 2.349z" fill="url(#paint20_linear)"/><path d="M112.546 32.591c-1.047 2.05-.499 6.598-.349 6.648.149.05 5.482 2.45 7.177 1.65 2.592-1.2 2.841-4.499 2.841-6.148 0-1.65-3.439-3.55-5.084-3.75-4.336-.65-4.585 1.6-4.585 1.6z" fill="url(#paint21_linear)"/><path d="M103.574 30.492c2.193-3.15 5.084-.6 5.084-.6s.299-1.55-.448-3.449c-.299-.1-.599-.2-.848-.2-.05.6.05 2.1 0 2-.05-.1-.598-1.4-.897-2.05-2.243.1-3.838 2.05-2.891 4.299z" fill="url(#paint22_linear)"/><path d="M119.125 46.587l2.293-.95c1.146-1.449 3.14-4.298 4.236-7.647 1.645-4.899.1-9.298-2.043-10.147.847-2.5-.947-5.099-.947-5.099l4.436-.3c2.94 2.35 3.887 7.548 3.289 10.697-.498 2.8-2.492 8.698-3.539 10.997-.747 5.349-1.644 10.247-4.834 14.146-4.636 5.698-7.377 5.099-8.573 4.399-1.196-.75 5.682-16.096 5.682-16.096z" fill="url(#paint23_linear)"/><path d="M126.102 47.037c-.647-.85.698-5.848 1.346-7.298.947-2.05 4.187-3.699 5.433-1.75 1.246 2 .149 6.899-2.941 8.598-1.844 1-3.389 1.1-3.838.45z" fill="#FAA570"/><path d="M129.492 45.038c-.498.35-1.047.35-1.396.25-.099 0-.149-.05-.199-.1 1.994-.6 2.442-3.35.349-2.95 0-.05.05-.1.05-.2.847-2.249 2.741-2.999 3.389-2.049.748 1.65-1.296 4.399-2.193 5.049z" fill="url(#paint24_linear)"/><path d="M119.324 38.09c-.598-3.1-3.439-4.25-5.283-2.25-.499.6-.698 1.4-.648 2.15.05.35.249.7.548.85.897.55 2.592 1.15 4.635.55.299-.05.499-.25.598-.55.2-.35.2-.5.15-.75z" fill="#fff"/><path d="M118.327 37.09c-.05-.15-.1-.3-.199-.45-.299-.65-1.346-1.05-2.044-.75-.947.3-1.495 1.3-1.196 2.25.299.95 1.296 1.45 2.243 1.2.997-.3 1.495-1.3 1.196-2.25z" fill="url(#paint25_linear)"/><path d="M108.807 35.59c.05.5 0 .95-.149 1.35-.1.3-.399.55-.748.6-.249.05-.548.05-.797 0h-.05c-.449-.05-.897-.2-1.246-.35a1.42 1.42 0 01-.897-1.2c-.15-1.4.598-2.649 1.694-2.749.798-.1 1.595.5 1.994 1.35l.149.45c0 .2.05.4.05.55z" fill="#fff"/><path d="M108.807 35.59c.05.5 0 .95-.149 1.35-.1.3-.399.55-.748.6-.249.05-.548.05-.797 0h-.05a1.769 1.769 0 01-.897-1.4c-.1-.95.498-1.8 1.346-1.85.398-.05.797.1 1.096.35l.15.45c0 .15.049.35.049.5z" fill="url(#paint26_linear)"/><path d="M108.757 35.59c.05-1.6-.797-2.449-1.345-2.649-.299-.1-.598-.15-.897-.1-.299.05-.599.15-.848.3s-.448.4-.548.65c-.1.25-.199.5-.15.75h.05c.2-.4.499-.8.897-1 .2-.1.399-.2.648-.2.25 0 .449 0 .698.1.449.15.798.45 1.047.85.249.4.399.85.448 1.3z" fill="#70251B"/><path d="M100.484 59.184c-1.645-.1-2.741-1.85-2.492-7.198.2-5.399 2.492-8.548 2.492-8.548l1.196 1.4-1.196 14.346z" fill="url(#paint27_linear)"/><path d="M120.321 47.487c-1.246 8.648-3.688 12.696-5.881 14.696-2.243 2-5.981 1.85-6.978-.2-.997-2 3.638-13.496 3.638-13.496l9.221-1z" fill="url(#paint28_linear)"/><path d="M103.075 61.083c-2.542.15-3.588-1.7-3.439-7.998.1-5.498 1.695-8.397 1.695-8.397h3.539l-.549 8.547-1.246 7.848z" fill="url(#paint29_linear)"/><path d="M111.449 50.386c-.598 5.449-3.24 11.397-4.187 12.097-.947.7-3.289 1.3-4.336-1.6-1.046-2.899 1.595-14.646 1.994-15.995.349-1.3 6.529 5.498 6.529 5.498z" fill="url(#paint30_linear)"/><path d="M115.735 45.038c-.548 2.549-2.791 5.398-3.937 5.898-1.196.5-4.835.55-5.632-.35-.698-.85-.848-1.95-1.795-5.748-.598-2.3 3.29-2.05 3.489-2 .25 0 7.875 2.2 7.875 2.2z" fill="url(#paint31_linear)"/><path d="M114.19 45.688v.05c0 .05-.05.15-.099.3-.2.5-.599 1.4-1.246 2.249-.449.6-.997 1.15-1.695 1.5-.598.35-1.894.45-3.09.4-.299 0-.598-.05-.848-.05-.947-.1-2.193-4.35-1.694-4.8.149.1.299.25.498.3.1.05.15.1.249.15.399.2.798.3 1.247.4 2.591.55 5.931-.25 6.678-.45h.1c-.15-.05-.1-.05-.1-.05z" fill="#631515"/><path d="M114.14 45.737c0 .05-.049.15-.099.3-.2.5-.598 1.4-1.246 2.25-.449.6-.997 1.15-1.695 1.5-.598.35-1.894.45-3.09.4.199-.7.498-2.45-.598-4 2.592.55 5.931-.25 6.679-.45h.099-.05z" fill="#fff"/><path d="M107.562 43.288c.548-1.65-1.695-.95-1.695-.95s-2.692.45-4.237 0-2.392-1.25-2.392-1.25-.797 3 1.196 4.5c2.094 1.5 5.832 1.05 7.128-2.3z" fill="url(#paint32_radial)"/><path d="M107.661 44.988c3.34 4.398 8.523 4.548 11.165 3.349 4.984-2.25 3.189-5.349 3.189-5.349l-6.678 2.15-6.33-1.25-1.047-1.35c.05-.05-1.545.1-.299 2.45z" fill="url(#paint33_radial)"/><path d="M107.462 20.795c-2.143 1.2-3.19 3.948-3.19 3.948s-.15-2.049 1.944-5.148c.648-.25 1.246 1.2 1.246 1.2z" fill="url(#paint34_linear)"/><path d="M110.951 9.948c-2.692-1.15-5.433 1.9-6.031 4.498-1.047 4.45 1.196 7.898 7.875 7.948-3.738-5.448-1.844-12.446-1.844-12.446z" fill="url(#paint35_radial)"/><path d="M119.872 9.548c.898-2-6.18-1.35-8.373-.25-5.233 2.65-5.034 8.098-2.043 11.597 2.99 3.499 14.155 2.049 14.155 2.049s-9.62-5.798-8.374-9.297c1.246-3.45 4.635-4.1 4.635-4.1z" fill="url(#paint36_radial)"/><path d="M127.597 18.495c2.193 2.15 1.745 4.599-3.14 4.749-4.934.1-9.619-2.9-10.466-7.248-.848-4.349 1.794-6.198 5.133-6.448 3.34-.25 4.436.85 2.293 1.45-2.143.65-4.585 2.599-1.894 4.148 2.143 1.2 5.233.5 8.074 3.35z" fill="url(#paint37_radial)"/><path d="M111.548 42.738c2.044 1.65 6.33 1.3 8.523-.95.947-.95 1.645-1.899 1.994-1.749.399.1.748 2.1.199 3.5-.697 1.899-3.239 3.598-7.276 3.548-4.287-.05-6.829-3.799-6.829-3.799l3.389-.55z" fill="url(#paint38_radial)"/><path d="M106.664 42.738c-2.791 2.65-6.479 1.45-7.625-.4-1.147-1.849.15-4.198.448-4.198.3 0 .349 1.7 2.243 2.949 1.894 1.25 3.788.8 3.788.8l1.146.85z" fill="url(#paint39_radial)"/><path d="M114.041 35.84c1.595-1.2 4.436-1.05 5.333 2.45-.399-3.95-4.087-4.45-5.333-2.45z" fill="#70251B"/><path d="M122.414 34.89c-3.688-4.648-8.224-3.848-10.018-2.149-.449-1.3-.598-3.149 0-4.798.299-.2.648-.3.997-.4a8.05 8.05 0 01.548 2.349l1.196-2.6c3.14.05 6.729 2.6 7.277 7.599z" fill="url(#paint40_linear)"/><path d="M112.994 38.49c3.29.95 6.729 1.3 6.729 1.3s-.997 1.599-1.197 1.549c-.199-.05-2.99-.25-3.14-.35-.199-.1-2.392-2.5-2.392-2.5zM108.658 37.54c-3.439-.75-5.483-.7-5.483-.7l.449 1.45h3.489l1.545-.75z" fill="#FAA570"/><path d="M114.789 36.54c-.25.6.149.9.648.5.548-.4-.499-.8-.648-.5zM106.066 34.74c-.249.6.15.9.648.5.548-.35-.498-.8-.648-.5z" fill="#fff"/><path d="M104.969 42.039c0 .1.05.2.05.3.05.2.2.4.399.5.399.25 1.047.55 1.745.6 1.046.05 4.535.4 4.834-.6.299-1.05-.698-11.098-.698-11.098l-1.943-.6c.299 4.3-.798 6.899-4.087 9.948-.25.25-.349.6-.3.95z" fill="url(#paint41_linear)"/><path d="M123.71 113.868v2.15h-23.675l-3.29 3.749-16.547 55.084H69.532c0-.65 11.813-40.689 16.299-55.384.996-3.299 4.186-5.599 7.775-5.599h30.104z" fill="#FFD47A"/><path d="M156.157 173.351h-10.965l-12.112-52.585c-.648-2.799-3.189-4.748-6.13-4.748h-17.544v-2.15h18.092c.698 0 1.396.1 2.093.25.648.15 1.296.4 1.894.75l8.822.6 2.941 2.449 12.909 55.434z" fill="url(#paint42_linear)"/><path d="M79.252 174.851c0-.65 11.812-40.689 16.298-55.384.997-3.299 4.187-5.599 7.775-5.599h33.942c3.788 0 7.078 2.55 7.875 6.148l12.211 53.335h-2.392l-12.112-52.585c-.647-2.799-3.189-4.748-6.13-4.748h-32.945c-2.791 0-5.234 1.749-6.031 4.348l-16.298 54.485h-2.193z" fill="#BF6224"/><path d="M143.347 113.068c-.498.6-1.844 1-3.638 1.2-4.934.5-13.607-.3-20.435-1.3-5.433-.799-9.669-1.649-9.819-2.049-.399-1 0-2.699.748-2.949.399-.15 6.728-.8 13.058-1.4a735.46 735.46 0 0110.916-1.049c1.096-.1 1.744-.15 1.744-.15s1.545.699 3.24 1.799c.548.35 1.146.8 1.644 1.25 1.546 1.299 2.792 2.949 2.542 4.648z" fill="#FAA570"/><path opacity=".5" d="M144.843 106.02c-.299 3.3-.798 5.849-1.495 7.048-.499.6-1.845 1-3.639 1.2-4.934.5-13.607-.3-20.435-1.3-5.433-.799-9.669-1.649-9.819-2.049 7.825.6 21.482.75 29.855-1.949.549-.15 1.047-.35 1.545-.55 1.645-.65 2.991-1.45 3.988-2.4z" fill="url(#paint43_linear)"/><path d="M109.356 104.271c-.748-1.05-4.187-2.199-5.084-1.45-.847.75-1.595 2-1.595 2l5.532.65 1.147-1.2z" fill="url(#paint44_linear)"/><path d="M100.334 103.171s3.988-.949 5.234.1c1.246 1.05.698 8.198 0 9.148-.698.949-4.785-.2-5.582.4-.798.549-.449-1.3-.449-1.3s4.536.3 4.884-.4c.349-.65.349-6.248-.348-6.798-.698-.55-3.888 0-3.888 0l.149-1.15z" fill="url(#paint45_linear)"/><path d="M101.381 100.672c.947 1.15 0 12.296-1.346 12.996-1.346.65-7.725 1.1-9.57-.4-1.844-1.499-1.545-12.746-.847-13.246.648-.5 10.916-.35 11.763.65z" fill="url(#paint46_linear)"/><path d="M102.527 109.669c.498-.899 4.087-.349 4.934-.299.698.05 1.894.05 2.443.399.348.2 1.545.8 1.445 1.35-.1.5-1.595.55-2.043.6-1.994.35-3.489.1-5.483-.35-.748-.15-1.844-.7-1.296-1.7z" fill="url(#paint47_linear)"/><path d="M111.299 110.369c-.1-.25-1.994-2.249-2.392-2.649-.449-.4-6.579-.85-6.978-.05-.399.75-.199 2.049 3.04 1.949 3.24-.1 6.33.75 6.33.75z" fill="url(#paint48_linear)"/><path d="M102.776 104.221c.349-.8 6.131-.3 6.58.05.448.35 3.04 3.399 3.14 3.599 0 0-1.745 3.699-4.636 3.299-2.342-.35-2.591-2.449-1.296-4.749-.299 0-.648.2-.947.1-3.239-1.149-3.189-1.499-2.841-2.299z" fill="url(#paint49_linear)"/><path d="M111.399 108.77c-.1-.25-1.994-2.25-2.393-2.65-.448-.399-6.429-1.099-6.878-.349-.399.749-.249 2.049 2.991 1.949 3.239-.1 6.28 1.05 6.28 1.05z" fill="url(#paint50_linear)"/><path d="M40.873 143.91c.35.55-.05 2.499-1.545 5.098-.299.55-8.971.4-10.816-1.549-1.844-1.95-.647-5.149.3-5.099.996.05 4.635 3.699 12.061 1.55z" fill="url(#paint51_linear)"/><path d="M55.477 144.56s-.549.149-.549.899c0 1.5.25 4.099.449 4.299 1.047 1.15 8.623 2.749 10.018 1.2.648-.75 1.944-2.3 1.994-3.299 0-.45-.3-.85-.3-.85s-7.675 1-11.612-2.249z" fill="url(#paint52_linear)"/><path d="M126.65 64.232c-.647 1.75-2.641 5.349-7.725 8.748-.05-.9-.199-1.95-.548-2.85-.15-.45-.399-.9-.648-1.299-.698-1.05-1.745-1.8-3.29-1.95 6.878-.55 9.819-5.798 9.819-5.798s1.196.55 1.894 1.4c.15.2.299.4.399.6.149.35.249.75.099 1.15zM89.718 69.08c-.249-.099-.548-.249-.797-.399-.2-.1-.399-.2-.598-.25-.05 0-.1-.05-.15-.05-3.489-5.348.498-10.497 3.638-12.496l.35.1.398.1.847.25c-2.641 1.3-6.928 5.298-3.688 12.746z" fill="#32FFAC"/><path d="M108.309 76.429c-.05.5-.499.85-.947.8-.449-.05-.798-.5-.748-1 .05-.5.498-.85.947-.8.498.05.847.5.748 1z" fill="#CFFFEC"/><path d="M108.059 76.379c-.049.35-.349.6-.697.55-.349-.05-.549-.35-.499-.7.05-.35.349-.6.698-.55.349.05.548.35.498.7z" fill="#B6E0D0"/><path d="M107.262 80.378c-.05.5-.498.85-.947.8-.449-.05-.797-.5-.748-1 .05-.5.499-.85.947-.8.449.05.798.5.748 1z" fill="#CFFFEC"/><path d="M106.963 80.328c-.05.35-.349.6-.698.55-.349-.05-.548-.35-.498-.7.049-.35.348-.6.697-.55.299 0 .549.3.499.7z" fill="#B6E0D0"/><path opacity=".6" d="M45.697 62.976l-.184-.958c-2.191.297-3.715-.527-4.036-2.158l1.964-.378c.181.684.886 1.097 1.78 1.021l-.495-2.577-.766-.044c-1.736-.053-2.804-.808-3.07-2.194-.315-1.633.692-2.938 2.733-3.497l-.193-.999.873-.168.192 1c2.143-.24 3.488.63 3.81 2.158l-1.964.378c-.142-.629-.651-1.058-1.542-.958l.465 2.42.878.03c1.839.032 2.892.745 3.17 2.191.326 1.693-.657 3.015-2.928 3.6l.186.965-.873.168zm-1.336-6.944l-.435-2.262c-.745.184-1.196.734-1.074 1.366.113.587.634.884 1.51.896zm1.268 1.884l.465 2.42c1.033-.241 1.442-.794 1.306-1.5-.124-.647-.705-.986-1.771-.92z" fill="#04B70A"/><path opacity=".3" d="M55.302 46.469l.09-.906c-2.04-.315-3.185-1.456-3.04-3l1.857.182c-.018.66.502 1.216 1.323 1.386l.24-2.438-.674-.242c-1.54-.508-2.295-1.466-2.167-2.777.152-1.545 1.4-2.446 3.373-2.404l.093-.946.825.081-.093.946c1.982.352 2.954 1.489 2.837 2.94l-1.857-.182c.039-.6-.303-1.12-1.126-1.266l-.225 2.289.777.26c1.637.516 2.39 1.432 2.256 2.8-.157 1.601-1.387 2.524-3.574 2.446l-.09.912-.825-.081zm.645-6.567l.21-2.14c-.715-.032-1.264.34-1.323.938-.055.555.333.96 1.113 1.202zm.635 2.021l-.225 2.289c.988.058 1.501-.328 1.567-.996.06-.611-.37-1.07-1.342-1.293z" fill="#04B70A"/><path d="M56.382 77.021l.183-1.212c-2.72-.567-4.181-2.182-3.878-4.25l2.486.376c-.071.886.59 1.671 1.682 1.957l.493-3.263-.89-.372c-2.034-.79-2.983-2.133-2.718-3.887.312-2.068 2.053-3.192 4.705-2.998l.191-1.265 1.105.167-.191 1.265c2.64.613 3.868 2.21 3.61 4.155l-2.487-.376c.095-.805-.328-1.527-1.425-1.782l-.463 3.063 1.027.403c2.166.81 3.115 2.096 2.839 3.927-.324 2.142-2.043 3.297-4.98 3.038l-.184 1.221-1.105-.167zm1.328-8.789l.433-2.863c-.96-.093-1.725.369-1.846 1.17-.112.742.38 1.313 1.413 1.693zm.712 2.764l-.462 3.063c1.325.148 2.041-.336 2.176-1.23.124-.818-.422-1.464-1.714-1.833z" fill="#04B70A"/></g><defs><linearGradient id="paint0_linear" x1="93.578" y1="177.169" x2="80.3" y2="119.406" gradientUnits="userSpaceOnUse"><stop offset=".209" stop-color="#E09C43"/><stop offset=".554" stop-color="#DE9A41"/><stop offset=".755" stop-color="#D5933B"/><stop offset=".919" stop-color="#C78631"/><stop offset="1" stop-color="#BD7D2A"/></linearGradient><linearGradient id="paint1_linear" x1="70.595" y1="132.494" x2="70.595" y2="147.998" gradientUnits="userSpaceOnUse"><stop offset=".242" stop-color="#D15738"/><stop offset=".437" stop-color="#CE5337"/><stop offset=".643" stop-color="#C64632"/><stop offset=".853" stop-color="#B8312C"/><stop offset=".919" stop-color="#B32929"/></linearGradient><linearGradient id="paint2_linear" x1="75.769" y1="22.571" x2="74.857" y2="15.412" gradientUnits="userSpaceOnUse"><stop offset=".171" stop-color="#FAA570"/><stop offset=".897" stop-color="#E36748"/></linearGradient><linearGradient id="paint3_linear" x1="80.002" y1="3.219" x2="77.951" y2="12.536" gradientUnits="userSpaceOnUse"><stop offset=".171" stop-color="#FAA570"/><stop offset=".897" stop-color="#E36748"/></linearGradient><linearGradient id="paint4_linear" x1="76.586" y1="14.478" x2="73.889" y2="14.478" gradientUnits="userSpaceOnUse"><stop offset=".171" stop-color="#FAA570"/><stop offset=".897" stop-color="#E36748"/></linearGradient><linearGradient id="paint5_linear" x1="74.568" y1="14.684" x2="72.059" y2="14.684" gradientUnits="userSpaceOnUse"><stop offset=".171" stop-color="#FAA570"/><stop offset=".897" stop-color="#E36748"/></linearGradient><linearGradient id="paint6_linear" x1="72.596" y1="15.477" x2="69.921" y2="15.477" gradientUnits="userSpaceOnUse"><stop offset=".171" stop-color="#FAA570"/><stop offset=".897" stop-color="#E36748"/></linearGradient><linearGradient id="paint7_linear" x1="28.093" y1="167.563" x2="29.941" y2="138.903" gradientUnits="userSpaceOnUse"><stop offset=".221" stop-color="#FAA570"/><stop offset=".398" stop-color="#F89F6C"/><stop offset=".641" stop-color="#F18D61"/><stop offset=".919" stop-color="#E7714E"/><stop offset="1" stop-color="#E36748"/></linearGradient><linearGradient id="paint8_linear" x1="30.073" y1="133.014" x2="69.336" y2="118.87" gradientUnits="userSpaceOnUse"><stop stop-color="#039CAF"/><stop offset="1" stop-color="#21384A"/></linearGradient><linearGradient id="paint9_linear" x1="57.546" y1="170.384" x2="59.113" y2="146.072" gradientUnits="userSpaceOnUse"><stop offset=".221" stop-color="#FAA570"/><stop offset=".398" stop-color="#F89F6C"/><stop offset=".641" stop-color="#F18D61"/><stop offset=".919" stop-color="#E7714E"/><stop offset="1" stop-color="#E36748"/></linearGradient><linearGradient id="paint10_linear" x1="106.874" y1="75.176" x2="111.319" y2="65.501" gradientUnits="userSpaceOnUse"><stop stop-color="#E36748"/><stop offset=".283" stop-color="#EB927C"/><stop offset=".93" stop-color="#FFFEFE"/><stop offset=".934" stop-color="#fff"/></linearGradient><linearGradient id="paint11_linear" x1="133" y1="100.5" x2="153.505" y2="91.011" gradientUnits="userSpaceOnUse"><stop stop-color="#F2B9AA" stop-opacity="0"/><stop offset=".399" stop-color="#EA8D75"/><stop offset=".63" stop-color="#E57154"/><stop offset="1" stop-color="#E36748"/></linearGradient><linearGradient id="paint13_linear" x1="108.752" y1="43.73" x2="96.486" y2="66.695" gradientUnits="userSpaceOnUse"><stop stop-color="#6B7A82"/><stop offset=".902" stop-color="#fff"/></linearGradient><linearGradient id="paint14_linear" x1="135.288" y1="57.904" x2="123.022" y2="80.868" gradientUnits="userSpaceOnUse"><stop stop-color="#6B7A82"/><stop offset=".902" stop-color="#fff"/></linearGradient><linearGradient id="paint15_linear" x1="102.603" y1="126.525" x2="107.615" y2="84.707" gradientUnits="userSpaceOnUse"><stop stop-color="#6B7A82"/><stop offset=".902" stop-color="#fff"/></linearGradient><linearGradient id="paint16_linear" x1="106.536" y1="79.343" x2="110.689" y2="67.232" gradientUnits="userSpaceOnUse"><stop offset=".665" stop-color="#32FFAC"/><stop offset=".967" stop-color="#15D98A"/></linearGradient><linearGradient id="paint17_linear" x1="57.87" y1="135.253" x2="108.476" y2="122.7" gradientUnits="userSpaceOnUse"><stop stop-color="#039CAF"/><stop offset=".828" stop-color="#21384A"/></linearGradient><linearGradient id="paint18_linear" x1="61.565" y1="82.427" x2="70.284" y2="115.934" gradientUnits="userSpaceOnUse"><stop offset=".109" stop-color="#A2ACAC"/><stop offset=".298" stop-color="#94A2A4"/><stop offset=".651" stop-color="#70878E"/><stop offset="1" stop-color="#476975"/></linearGradient><linearGradient id="paint20_linear" x1="102.928" y1="36.369" x2="109.727" y2="29.256" gradientUnits="userSpaceOnUse"><stop offset=".171" stop-color="#FAA570"/><stop offset=".897" stop-color="#E36748"/></linearGradient><linearGradient id="paint21_linear" x1="117.9" y1="40.191" x2="115.938" y2="31.044" gradientUnits="userSpaceOnUse"><stop offset=".24" stop-color="#FAA570"/><stop offset=".897" stop-color="#E36748"/></linearGradient><linearGradient id="paint22_linear" x1="108.668" y1="28.123" x2="103.251" y2="28.412" gradientUnits="userSpaceOnUse"><stop stop-color="#70251B"/><stop offset=".182" stop-color="#772A1D"/><stop offset=".439" stop-color="#893923"/><stop offset=".737" stop-color="#A7512D"/><stop offset="1" stop-color="#C76B37"/></linearGradient><linearGradient id="paint23_linear" x1="117.995" y1="41.908" x2="128.851" y2="44.959" gradientUnits="userSpaceOnUse"><stop stop-color="#C76B37"/><stop offset=".039" stop-color="#BE6434"/><stop offset=".188" stop-color="#A24D2B"/><stop offset=".347" stop-color="#8C3B24"/><stop offset=".521" stop-color="#7C2F1F"/><stop offset=".72" stop-color="#73271C"/><stop offset="1" stop-color="#70251B"/></linearGradient><linearGradient id="paint24_linear" x1="126.718" y1="44.942" x2="131.803" y2="40.682" gradientUnits="userSpaceOnUse"><stop offset=".231" stop-color="#FAA570"/><stop offset=".427" stop-color="#F79F6B"/><stop offset=".69" stop-color="#F08E5E"/><stop offset=".991" stop-color="#E37248"/><stop offset="1" stop-color="#E37147"/></linearGradient><linearGradient id="paint25_linear" x1="114.845" y1="37.905" x2="118.403" y2="37.358" gradientUnits="userSpaceOnUse"><stop stop-color="#AD7C68"/><stop offset="1" stop-color="#2E0B0B"/></linearGradient><linearGradient id="paint26_linear" x1="106.146" y1="36.035" x2="108.829" y2="35.892" gradientUnits="userSpaceOnUse"><stop stop-color="#AD7C68"/><stop offset="1" stop-color="#2E0B0B"/></linearGradient><linearGradient id="paint27_linear" x1="101.111" y1="51.32" x2="97.618" y2="51.204" gradientUnits="userSpaceOnUse"><stop stop-color="#70251B"/><stop offset=".045" stop-color="#772A1D"/><stop offset=".319" stop-color="#994628"/><stop offset=".576" stop-color="#B25A30"/><stop offset=".811" stop-color="#C26735"/><stop offset="1" stop-color="#C76B37"/></linearGradient><linearGradient id="paint28_linear" x1="117.909" y1="56.233" x2="104.75" y2="52.873" gradientUnits="userSpaceOnUse"><stop stop-color="#70251B"/><stop offset=".23" stop-color="#7F3120"/><stop offset=".67" stop-color="#A6502C"/><stop offset="1" stop-color="#C76B37"/></linearGradient><linearGradient id="paint29_linear" x1="99.349" y1="51.783" x2="104.193" y2="53.036" gradientUnits="userSpaceOnUse"><stop stop-color="#C76B37"/><stop offset=".243" stop-color="#B75E32"/><stop offset=".72" stop-color="#8C3C24"/><stop offset="1" stop-color="#70251B"/></linearGradient><linearGradient id="paint30_linear" x1="110.649" y1="55.195" x2="101.197" y2="53.012" gradientUnits="userSpaceOnUse"><stop offset=".114" stop-color="#70251B"/><stop offset=".362" stop-color="#8C3C24"/><stop offset=".784" stop-color="#B75E32"/><stop offset="1" stop-color="#C76B37"/></linearGradient><linearGradient id="paint31_linear" x1="108.551" y1="51.689" x2="110.106" y2="44.181" gradientUnits="userSpaceOnUse"><stop stop-color="#FAA570"/><stop offset="1" stop-color="#E37147"/></linearGradient><linearGradient id="paint34_linear" x1="107.514" y1="22.051" x2="104.138" y2="22.231" gradientUnits="userSpaceOnUse"><stop offset=".423" stop-color="#70251B"/><stop offset=".528" stop-color="#772A1D"/><stop offset=".676" stop-color="#893923"/><stop offset=".848" stop-color="#A7512D"/><stop offset="1" stop-color="#C76B37"/></linearGradient><linearGradient id="paint40_linear" x1="112.475" y1="28.21" x2="122.404" y2="35.701" gradientUnits="userSpaceOnUse"><stop stop-color="#C76B37"/><stop offset=".241" stop-color="#A7512D"/><stop offset=".514" stop-color="#893923"/><stop offset=".748" stop-color="#772A1D"/><stop offset=".915" stop-color="#70251B"/></linearGradient><linearGradient id="paint41_linear" x1="111.1" y1="31.904" x2="108.142" y2="43.536" gradientUnits="userSpaceOnUse"><stop offset=".566" stop-color="#FAA570"/><stop offset=".629" stop-color="#F99E6C"/><stop offset=".722" stop-color="#F48A60"/><stop offset=".833" stop-color="#EE6A4D"/><stop offset=".938" stop-color="#E64537"/></linearGradient><linearGradient id="paint42_linear" x1="156.138" y1="143.594" x2="109.412" y2="143.594" gradientUnits="userSpaceOnUse"><stop offset=".209" stop-color="#E09C43"/><stop offset=".554" stop-color="#DE9A41"/><stop offset=".755" stop-color="#D5933B"/><stop offset=".919" stop-color="#C78631"/><stop offset="1" stop-color="#BD7D2A"/></linearGradient><linearGradient id="paint43_linear" x1="124" y1="109" x2="125" y2="118" gradientUnits="userSpaceOnUse"><stop stop-color="#F2B9AA" stop-opacity="0"/><stop offset=".59" stop-color="#E57154"/><stop offset="1" stop-color="#E36748"/></linearGradient><linearGradient id="paint44_linear" x1="109.371" y1="104.043" x2="102.701" y2="104.043" gradientUnits="userSpaceOnUse"><stop offset=".395" stop-color="#FAA570"/><stop offset=".813" stop-color="#E36748"/></linearGradient><linearGradient id="paint45_linear" x1="99.478" y1="107.827" x2="106.332" y2="107.827" gradientUnits="userSpaceOnUse"><stop stop-color="#9C2430"/><stop offset="1" stop-color="#9C2430"/></linearGradient><linearGradient id="paint46_linear" x1="82.179" y1="106.765" x2="107.819" y2="107.257" gradientUnits="userSpaceOnUse"><stop offset=".151" stop-color="#CE57D4"/><stop offset=".23" stop-color="#C14AAA"/><stop offset=".338" stop-color="#B13A76"/><stop offset=".433" stop-color="#A62E50"/><stop offset=".509" stop-color="#9F2739"/><stop offset=".556" stop-color="#9C2430"/></linearGradient><linearGradient id="paint47_linear" x1="108.754" y1="110.633" x2="98.799" y2="110.242" gradientUnits="userSpaceOnUse"><stop offset=".44" stop-color="#FAA570"/><stop offset=".721" stop-color="#E36748"/></linearGradient><linearGradient id="paint48_linear" x1="111.3" y1="108.8" x2="101.752" y2="108.8" gradientUnits="userSpaceOnUse"><stop offset=".695" stop-color="#FAA570"/><stop offset="1" stop-color="#E36748"/></linearGradient><linearGradient id="paint49_linear" x1="107.714" y1="107.425" x2="101.604" y2="105" gradientUnits="userSpaceOnUse"><stop offset=".529" stop-color="#FAA570"/><stop offset="1" stop-color="#E36748"/></linearGradient><linearGradient id="paint50_linear" x1="106.518" y1="106.905" x2="100.553" y2="105.488" gradientUnits="userSpaceOnUse"><stop offset=".312" stop-color="#FAA570"/><stop offset=".745" stop-color="#E36748"/></linearGradient><linearGradient id="paint51_linear" x1="24.296" y1="145.395" x2="42.79" y2="146.41" gradientUnits="userSpaceOnUse"><stop offset=".251" stop-color="#AFEDDE"/><stop offset="1" stop-color="#79BAB9"/></linearGradient><linearGradient id="paint52_linear" x1="58.192" y1="146.971" x2="65.323" y2="150.353" gradientUnits="userSpaceOnUse"><stop offset=".258" stop-color="#AFEDDE"/><stop offset="1" stop-color="#79BAB9"/></linearGradient><radialGradient id="paint12_radial" cx="0" cy="0" r="1" gradientUnits="userSpaceOnUse" gradientTransform="matrix(-20.47 0 0 -20.5293 114.987 48.573)"><stop offset=".654" stop-color="#E36748"/><stop offset=".657" stop-color="#E3694A"/><stop offset=".757" stop-color="#EFA997"/><stop offset=".84" stop-color="#F8D7CF"/><stop offset=".901" stop-color="#FDF4F2"/><stop offset=".934" stop-color="#fff"/></radialGradient><radialGradient id="paint19_radial" cx="0" cy="0" r="1" gradientUnits="userSpaceOnUse" gradientTransform="matrix(5.40587 1.21919 -1.3078 5.79878 56.426 97.687)"><stop stop-color="#fff"/><stop offset=".086" stop-color="#DFDFDF"/><stop offset=".314" stop-color="#919191"/><stop offset=".518" stop-color="#535353"/><stop offset=".688" stop-color="#262626"/><stop offset=".82" stop-color="#0A0A0A"/><stop offset=".896"/></radialGradient><radialGradient id="paint32_radial" cx="0" cy="0" r="1" gradientUnits="userSpaceOnUse" gradientTransform="matrix(-4.8141 .2582 -.25894 -4.82795 103.489 42.238)"><stop stop-color="#C76B37"/><stop offset=".528" stop-color="#903F25"/><stop offset=".879" stop-color="#70251B"/></radialGradient><radialGradient id="paint33_radial" cx="0" cy="0" r="1" gradientUnits="userSpaceOnUse" gradientTransform="matrix(-11.38627 5.33227 -5.34215 -11.40738 115.309 36.599)"><stop offset=".625" stop-color="#C76B37"/><stop offset=".759" stop-color="#9D4929"/><stop offset=".883" stop-color="#7C2F1F"/><stop offset=".95" stop-color="#70251B"/></radialGradient><radialGradient id="paint35_radial" cx="0" cy="0" r="1" gradientUnits="userSpaceOnUse" gradientTransform="rotate(176.93 55.6 9.494) scale(6.86184 6.88159)"><stop offset=".546" stop-color="#70251B"/><stop offset="1" stop-color="#C76B37"/></radialGradient><radialGradient id="paint36_radial" cx="0" cy="0" r="1" gradientUnits="userSpaceOnUse" gradientTransform="rotate(176.93 60.532 9.134) scale(13.0796 13.1173)"><stop offset=".546" stop-color="#70251B"/><stop offset="1" stop-color="#C76B37"/></radialGradient><radialGradient id="paint37_radial" cx="0" cy="0" r="1" gradientUnits="userSpaceOnUse" gradientTransform="matrix(-13.45966 .72188 -.72396 -13.4984 125.832 11.587)"><stop offset=".423" stop-color="#70251B"/><stop offset=".528" stop-color="#772A1D"/><stop offset=".676" stop-color="#893923"/><stop offset=".848" stop-color="#A7512D"/><stop offset="1" stop-color="#C76B37"/></radialGradient><radialGradient id="paint38_radial" cx="0" cy="0" r="1" gradientUnits="userSpaceOnUse" gradientTransform="rotate(154.906 53.503 32.06) scale(8.39027 8.40583)"><stop offset=".527" stop-color="#C76B37"/><stop offset=".613" stop-color="#C06535"/><stop offset=".74" stop-color="#AC552E"/><stop offset=".892" stop-color="#8B3B24"/><stop offset="1" stop-color="#70251B"/></radialGradient><radialGradient id="paint39_radial" cx="0" cy="0" r="1" gradientUnits="userSpaceOnUse" gradientTransform="rotate(176.93 51.038 20.78) scale(5.76645 5.78303)"><stop offset=".451" stop-color="#C76B37"/><stop offset=".533" stop-color="#C06535"/><stop offset=".654" stop-color="#AC552E"/><stop offset=".798" stop-color="#8B3B24"/><stop offset=".901" stop-color="#70251B"/></radialGradient><clipPath id="clip0"><path fill="#fff" transform="translate(1 2)" d="M0 0h173v176H0z"/></clipPath></defs></svg>